<svg xmlns="http://www.w3.org/2000/svg" viewBox="0 0 92 64">
  <g fill="#111">
    <!-- left twig leaves -->
    <path d="M12 34c-4 2-7 6-7 10 0 4 3 7 7 7 5 0 10-4 12-9-4-1-8-4-12-8Z"/>
    <path d="M20 31c-2-4-6-7-10-7-4 0-7 3-7 7 0 4 4 8 9 10 1-4 4-7 8-10Z"/>

    <!-- head leaves -->
    <path d="M49 8c-4-5-11-7-16-4 2 7 8 12 15 13 2-3 2-6 1-9Z"/>
    <path d="M59 11c-2-7-9-11-16-10 2 8 8 14 16 16 1-2 1-4 0-6Z"/>

    <!-- bird body -->
    <path d="M67 18c-9-7-23-7-33 0-8 5-13 13-13 22 0 11 9 20 20 20h4c18 0 33-12 33-26 0-7-4-13-11-16Z"/>

    <!-- beak -->
    <path d="M19 36c-4 1-8 4-9 7 3 3 8 4 12 2 3-2 5-5 5-8-3-1-6-2-8-1Z"/>

    <!-- eye -->
    <circle cx="39" cy="33" r="3.2"/>

    <!-- wing hint -->
    <path d="M55 42c-3 6-9 10-16 10 5 5 16 4 22-2 6-6 7-16 1-22-1 6-3 10-7 14Z" opacity="0.22"/>

    <!-- nest -->
    <path d="M14 48c6-8 18-14 32-14 14 0 26 6 32 14 2 3 2 7-1 10-5 4-15 6-31 6-16 0-26-2-31-6-3-3-3-7-1-10Z"/>

    <!-- nest texture -->
    <path d="M19 54c6-5 15-8 27-8 12 0 21 3 27 8-7-2-17-3-27-3s-20 1-27 3Z" opacity="0.18"/>
    <path d="M23 58c6-3 14-5 23-5s17 2 23 5c-6-1-14-2-23-2s-17 1-23 2Z" opacity="0.18"/>
  </g>
</svg>
